<?xml version="1.0" standalone="no"?>
<!DOCTYPE svg PUBLIC "-//W3C//DTD SVG 1.1//EN" "http://www.w3.org/Graphics/SVG/1.1/DTD/svg11.dtd" >
<svg xmlns="http://www.w3.org/2000/svg">
<metadata>Generated by IcoMoon</metadata>
<defs>
<font id="icomoon" horiz-adv-x="1024">
<font-face units-per-em="1024" ascent="960" descent="-64" />
<missing-glyph horiz-adv-x="1024" />
<glyph unicode="&#x20;" horiz-adv-x="512" d="" />
<glyph unicode="&#xe900;" glyph-name="v4" d="M328.704 960c33.792 0 62.464-11.776 86.016-35.328s35.328-52.736 35.328-86.528v-207.872c0-33.792-11.776-62.976-35.328-86.528s-52.224-35.328-86.528-35.328h-206.336c-33.792 0-62.464 11.776-86.016 35.328s-35.84 52.224-35.84 86.528v207.872c0 34.304 11.776 62.976 35.328 86.528s52.224 35.328 86.528 35.328h206.848zM902.144 960c33.792 0 62.464-11.776 86.016-35.328s35.328-52.736 35.328-86.528v-207.872c0-33.792-11.776-62.976-35.328-86.528s-52.224-35.328-86.016-35.328h-210.432c-33.792 0-62.464 11.776-86.016 35.328s-35.328 52.736-35.328 86.528v207.872c0 34.304 11.776 62.976 35.328 86.528s52.224 35.328 86.016 35.328h210.432zM328.704 388.096c33.792 0 62.464-11.776 86.528-35.328 23.552-23.552 35.328-52.736 35.328-86.528v-207.872c0-33.792-11.776-62.976-35.328-86.528s-52.224-35.328-86.528-35.328h-206.848c-33.792 0-62.464 11.776-86.016 35.328s-35.84 52.224-35.84 86.016v207.872c0 33.792 11.776 62.976 35.328 86.528s52.224 35.328 86.016 35.328c0.512 0.512 207.36 0.512 207.36 0.512zM902.144 388.096c33.792 0 62.464-11.776 86.016-35.328s35.328-52.736 35.328-86.528v-207.872c0-33.792-11.776-62.976-35.328-86.528s-52.224-35.328-86.016-35.328h-210.432c-33.792 0-62.464 11.776-86.016 35.328s-35.328 52.736-35.328 86.528v207.872c0 33.792 11.776 62.976 35.328 86.528s52.224 35.328 86.016 35.328h210.432z" />
<glyph unicode="&#xe901;" glyph-name="all" d="M441.032 864.488h-291.793c-27.874 0-50.68-22.806-50.68-50.679v-294.865c0-27.874 22.806-50.68 50.68-50.68h291.793c27.874 0 50.68 22.806 50.68 50.68v294.865c0 27.873-22.806 50.679-50.68 50.679zM439.47 531.23c0-5.922-4.801-10.723-10.723-10.723h-267.222c-5.922 0-10.723 4.801-10.723 10.723v270.292c0 5.922 4.801 10.723 10.723 10.723h267.221c5.922 0 10.723-4.801 10.723-10.723v-270.292zM875.14 864.488h-291.793c-27.874 0-50.68-22.806-50.68-50.679v-294.865c0-27.874 22.806-50.68 50.68-50.68h291.793c27.874 0 50.68 22.806 50.68 50.68v294.865c-0.001 27.873-22.807 50.679-50.68 50.679zM873.578 531.23c0-5.922-4.801-10.723-10.723-10.723h-267.222c-5.922 0-10.723 4.801-10.723 10.723v270.292c0 5.922 4.801 10.723 10.723 10.723h267.221c5.922 0 10.723-4.801 10.723-10.723v-270.292zM441.032 427.289h-291.793c-27.874 0-50.68-22.806-50.68-50.679v-294.865c0-27.874 22.806-50.68 50.68-50.68h291.793c27.874 0 50.68 22.806 50.68 50.68v294.865c0 27.873-22.806 50.679-50.68 50.679zM439.47 94.031c0-5.922-4.801-10.723-10.723-10.723h-267.222c-5.922 0-10.723 4.801-10.723 10.723v270.292c0 5.922 4.801 10.723 10.723 10.723h267.221c5.922 0 10.723-4.801 10.723-10.723v-270.292zM875.14 427.289h-291.793c-27.874 0-50.68-22.806-50.68-50.679v-294.865c0-27.874 22.806-50.68 50.68-50.68h291.793c27.874 0 50.68 22.806 50.68 50.68v294.865c-0.001 27.873-22.807 50.679-50.68 50.679zM873.578 94.031c0-5.922-4.801-10.723-10.723-10.723h-267.222c-5.922 0-10.723 4.801-10.723 10.723v270.292c0 5.922 4.801 10.723 10.723 10.723h267.221c5.922 0 10.723-4.801 10.723-10.723v-270.292z" />
<glyph unicode="&#xe902;" glyph-name="car" d="M416.6 764.6c63.1 8.6 127.1 8.6 190.3 0 44.4-8.1 88.7-14.5 130.4-25.1 31-7.2 55.8-28.5 65.6-56.2 18-46.4 36.9-92.3 56.8-137.9 3.6-7.7 14.2-19 20.4-18.2 35.2 5.4 68.7-15.8 75.4-47.7 2.2-8.2 2.2-16.9 0-25.1l-50.6-12.5c3.1-16 5.2-32.3 6.2-48.5v-224c-0.7-13.8-6-26.9-15.1-37.2-46.9-8.2-94.8-9.1-141.9-2.4-32.8 19-12.4 51-23.1 76.9h-431c-8.4-27.5-13.3-73.6-23.1-76.9-48.1-7.7-97.4-7.7-145.5 0-10.1 12-15.7 27.2-16 42.9-2.7 32.4-2.7 63.1-2.7 94.7 0 58.6 0 117.3 2.7 176.3l-47 11.3c-1.6 6.5-1.6 13.3 0 19.8 13.3 32.4 31.1 57.4 76.7 53.8 5.3 0 15.5 9.7 18.6 17 16.9 35.9 31.7 72.8 44.4 110.4 17.1 55.4 70.2 95.3 133.1 99.9 24.4 4 49.7 6.9 74.1 10.5l1.3-1.8zM220.5 514.6c191.6-36.9 388.5-36.9 580.2 0-16.4 44.9-32.8 84.9-44.4 125.4-7.1 31.8-38 54.4-73.6 53.8-91.8 3.6-184.1 6.5-275.9 7.3-29.9-1.1-59.7-5.3-88.7-12.5-13-2.3-24.6-9.5-32.4-20.2-24.8-49-43.4-99.6-65.2-153.8zM258.3 323.7c15.9-0.8 31.8 0 47.5 2.4 11.9 2.4 22.4 9.5 28.8 19.8 2.2 6.1-8 21-16.9 24.7-36.2 15.5-73.2 29-110.9 40.4-18.6 5.7-39.9 4.5-44.4-19.4-8.9-35.2 0-54.6 28.9-60.3 22.6-4 44.3-4.9 69.2-6.9l-2.2-0.7zM769.6 323.7c23.3 1.5 46.6 4.2 69.7 8.1 33.2 6.9 26.2 31.5 25.3 53-0.9 21.4-13.3 31.6-31.5 26.7-45.4-12.3-89.8-27.7-133.1-46.1-19.5-8.5-12.4-32 9.8-36.4 19.8-2.7 39.8-4.3 59.9-4.9v-0.4z" />
<glyph unicode="&#xe903;" glyph-name="car1" d="M310.19 407.843c-21.348 0-38.654-17.306-38.654-38.654s17.306-38.654 38.654-38.654v0c21.348 0 38.654 17.306 38.654 38.654s-17.306 38.654-38.654 38.654v0zM833.577 528.050l-67.657 176.819c-12.762 33.671-40.368 62.464-92.55 62.464h-65.258s-31.060 1.292-47.013 1.292h-69.003c-15.952 0-47.039-1.292-47.039-1.292h-95.844c-52.050 0-79.682-28.793-92.417-62.464l-65.866-176.818c-26.894-3.454-74.434-35.385-74.434-95.74v-154.485c0-15.135-1.503-58.456 56.478-58.456h34.62v-49.966c0-55.107 60.909-56.953 60.909 0v49.966h487.503v-49.966c0.975-56.030 61.857-55.107 60.881 0v49.966h34.647c55.767 0 56.505 47.804 56.505 58.456v154.486c0 60.354-47.593 92.258-74.461 95.739zM306.34 687.73c6.407 19.538 15.952 33.644 38.311 33.855h331.489c22.254-0.211 31.826-14.317 38.154-33.856l62.41-164.135h-531.774l61.41 164.135zM863.083 317.086c-0.015-28.463-23.085-51.533-51.547-51.548h-597.613c-28.469 0.014-51.545 23.081-51.575 51.545v110.323c0 28.45 23.098 51.522 51.575 51.522h597.612c28.477 0 51.548-23.072 51.548-51.522v-110.32zM735.518 407.842c-21.363 0-38.681-17.318-38.681-38.681s17.318-38.681 38.681-38.681v0c21.363 0 38.681 17.318 38.681 38.681s-17.318 38.681-38.681 38.681v0z" />
<glyph unicode="&#xe904;" glyph-name="cars" d="M1014.4 337.6c0 3.2-1.6 8-1.6 11.2 0 4.8 0 11.2-1.6 17.6 0 12.8-1.6 28.8-3.2 49.6-3.2 24-14.4 48-33.6 67.2-11.2 11.2-24 19.2-32 24v3.2c-1.6 6.4-3.2 14.4-4.8 25.6-3.2 14.4-6.4 30.4-11.2 48-1.6 6.4-3.2 14.4-4.8 22.4-4.8 27.2-9.6 54.4-22.4 78.4-12.8 27.2-36.8 49.6-64 62.4-35.2 16-68.8 17.6-118.4 17.6h-216c-38.4-9.6-44.8-12.8-60.8-24-1.6-1.6-3.2-1.6-4.8-3.2-40-27.2-52.8-64-62.4-100.8-17.6-75.2-24-112-27.2-128-20.8-11.2-60.8-40-67.2-104-1.6-9.6-1.6-19.2-3.2-28.8-3.2-32-8-65.6-1.6-96 8-33.6 25.6-59.2 57.6-76.8 3.2-8 8-19.2 17.6-30.4 14.4-17.6 43.2-30.4 68.8-32h4.8c20.8 0 41.6 8 56 20.8 9.6 8 17.6 16 25.6 30.4h273.6c4.8-8 12.8-20.8 25.6-30.4 16-12.8 38.4-20.8 60.8-20.8 24 0 46.4 9.6 64 27.2 9.6 9.6 11.2 12.8 17.6 27.2 1.6 1.6 1.6 4.8 3.2 8 6.4 3.2 14.4 8 24 16 20.8 17.6 33.6 43.2 36.8 72 8 19.2 6.4 33.6 4.8 46.4zM977.6 294.4c-6.4-46.4-41.6-60.8-43.2-62.4l-8-1.6-3.2-8c-3.2-6.4-4.8-11.2-6.4-14.4-4.8-11.2-4.8-11.2-9.6-16-14.4-14.4-32-16-38.4-16-14.4 0-28.8 4.8-38.4 11.2-12.8 11.2-19.2 27.2-19.2 27.2l-4.8 11.2h-321.6l-4.8-11.2c-4.8-14.4-11.2-20.8-20.8-27.2-12.8-11.2-28.8-11.2-32-11.2h-1.6c-16 1.6-35.2 9.6-43.2 19.2-9.6 11.2-12.8 22.4-12.8 24l-1.6 8-8 3.2c-54.4 25.6-51.2 68.8-43.2 137.6 1.6 9.6 1.6 19.2 3.2 30.4 4.8 59.2 51.2 76.8 52.8 78.4l11.2 3.2v12.8c0 1.6 3.2 28.8 27.2 132.8 9.6 41.6 22.4 62.4 46.4 78.4 1.6 1.6 3.2 1.6 4.8 3.2 11.2 8 14.4 9.6 46.4 17.6h209.6c51.2 0 76.8-1.6 102.4-14.4 19.2-9.6 36.8-25.6 46.4-46.4s14.4-44.8 19.2-68.8c1.6-8 3.2-16 4.8-22.4 3.2-17.6 8-35.2 11.2-49.6 1.6-9.6 4.8-20.8 6.4-25.6-1.6-6.4 0-16 9.6-20.8 0 0 1.6 0 1.6-1.6 4.8-1.6 17.6-9.6 30.4-20.8 12.8-12.8 20.8-28.8 22.4-44.8 1.6-20.8 3.2-35.2 3.2-48 0-6.4 0-11.2 1.6-17.6 0-4.8 1.6-8 1.6-12.8 0-9.6 1.6-20.8-1.6-36.8zM814.4 460.8c1.6 0 20.8 1.6 32 17.6 4.8 8 11.2 20.8 6.4 40 0 1.6-1.6 4.8-1.6 8-1.6 9.6-4.8 20.8-8 32-1.6 6.4-3.2 11.2-4.8 17.6s-3.2 11.2-4.8 17.6c-8 35.2-12.8 52.8-52.8 64h-3.2l-264 1.6c-8 0-20.8-1.6-33.6-11.2-14.4-11.2-16-19.2-20.8-36.8 0-1.6 0-3.2-1.6-4.8-1.6-8-3.2-14.4-4.8-19.2s-1.6-8-3.2-14.4c-1.6-4.8-1.6-9.6-3.2-17.6-3.2-11.2-6.4-28.8-11.2-52.8v-6.4c0-1.6 3.2-19.2 17.6-30.4 11.2-8 20.8-8 35.2-8h64c51.2 1.6 137.6 3.2 262.4 3.2zM552 497.6h-64c-9.6 0-12.8 0-12.8 1.6 0 0-1.6 1.6-1.6 3.2 4.8 22.4 8 36.8 11.2 48 1.6 6.4 3.2 12.8 4.8 17.6s1.6 8 3.2 11.2 3.2 12.8 4.8 22.4c0 1.6 0 3.2 1.6 4.8 1.6 4.8 1.6 9.6 3.2 11.2 0 0 0 1.6 4.8 3.2 4.8 3.2 8 3.2 11.2 3.2h3.2l256-1.6c17.6-4.8 17.6-8 24-36.8 1.6-8 3.2-14.4 6.4-20.8 1.6-4.8 3.2-9.6 4.8-16 3.2-11.2 4.8-22.4 6.4-30.4 0-3.2 1.6-6.4 1.6-9.6 1.6-4.8 0-8 0-9.6s-3.2-1.6-4.8-1.6h-264zM427.2 352c-28.8 0-52.8-24-52.8-52.8s24-52.8 52.8-52.8c28.8 0 52.8 24 52.8 52.8-1.6 30.4-24 52.8-52.8 52.8zM860.8 352c-28.8 0-52.8-24-52.8-52.8s24-52.8 52.8-52.8c28.8 0 52.8 24 52.8 52.8 0 30.4-24 52.8-52.8 52.8zM220.8 339.2h-65.6l-4.8-11.2c-3.2-8-8-12.8-12.8-17.6-6.4-4.8-16-6.4-20.8-6.4-9.6 0-22.4 6.4-25.6 11.2-4.8 6.4-8 12.8-8 14.4l-1.6 8-8 3.2c-35.2 16-33.6 44.8-27.2 91.2 0 6.4 1.6 14.4 1.6 20.8 3.2 36.8 32 49.6 33.6 49.6l11.2 3.2v12.8c0 1.6 1.6 20.8 19.2 92.8 6.4 27.2 14.4 41.6 30.4 51.2 1.6 0 1.6 1.6 3.2 1.6 8 4.8 9.6 6.4 30.4 11.2h145.6c9.6 0 19.2 8 17.6 19.2 0 9.6-8 19.2-19.2 19.2-54.4-1.6-147.2 0-147.2 0h-3.2c-27.2-6.4-32-9.6-43.2-17.6-1.6 0-1.6-1.6-3.2-1.6-12.8-8-22.4-19.2-30.4-32-6.4-11.2-11.2-24-16-41.6-11.2-49.6-16-75.2-19.2-88-16-9.6-43.2-30.4-48-76.8 0-6.4-1.6-12.8-1.6-19.2-3.2-22.4-4.8-46.4 0-68.8 4.8-24 19.2-43.2 41.6-56 1.6-6.4 6.4-12.8 12.8-20.8 11.2-12.8 32-24 52.8-25.6h3.2c16 0 30.4 6.4 43.2 16 6.4 4.8 12.8 11.2 17.6 19.2h41.6c9.6 0 19.2 8 17.6 19.2 0 9.6-8 19.2-17.6 19.2zM248 528h-91.2c3.2 12.8 4.8 22.4 6.4 30.4 1.6 4.8 1.6 9.6 3.2 12.8 0 3.2 1.6 4.8 1.6 8 1.6 4.8 3.2 9.6 3.2 16v3.2c0 1.6 1.6 4.8 1.6 6.4 0 0 1.6 0 1.6 1.6 1.6 1.6 3.2 1.6 3.2 1.6h1.6l96-1.6c9.6 0 19.2 8 19.2 17.6s-8 19.2-17.6 19.2l-92.8 1.6c-8 1.6-20.8 0-32-9.6s-12.8-16-16-28.8v-3.2c-1.6-6.4-1.6-9.6-3.2-12.8s-1.6-6.4-3.2-9.6c0-3.2-1.6-6.4-3.2-11.2-1.6-8-4.8-19.2-8-36.8v-6.4s0-1.6 1.6-4.8c-1.6-3.2-1.6-6.4-1.6-8 0-9.6 6.4-17.6 19.2-17.6h112c9.6 0 19.2 8 17.6 19.2 0 4.8-9.6 12.8-19.2 12.8zM81.6 384c0-20.8 16-36.8 36.8-36.8s36.8 16 36.8 36.8c0 20.8-16 36.8-36.8 36.8-19.2 0-36.8-16-36.8-36.8z" />
<glyph unicode="&#xe905;" glyph-name="company" d="M712-17h-634v641.8h230.6v116.6h172.8v175.2h57.6v-175h173v-233.4h230.6v-525.2h-230.6zM308.6 566.6h-172.8v-525.2h57.6v116.6h57.6v-116.6h57.6v525.2zM654.4 508.2v175h-288.2v-641.8h86.4v116.6h115.4v-116.6h86.4v466.8zM884.8 449.8h-172.8v-408.4h57.6v116.6h57.6v-116.6h57.6v408.4zM769.6 274.8h57.6v-58.4h-57.6v58.4zM769.6 391.4h57.6v-58.4h-57.6v58.4zM452.6 274.8h115.4v-58.4h-115.2v58.4zM452.6 391.4h115.4v-58.4h-115.2v58.4zM452.6 508.2h115.4v-58.4h-115.2v58.4zM452.6 624.8h115.4v-58.4h-115.2v58.4zM193.4 274.8h57.6v-58.4h-57.6v58.4zM193.4 391.4h57.6v-58.4h-57.6v58.4zM193.4 508.2h57.6v-58.4h-57.6v58.4z" />
<glyph unicode="&#xe906;" glyph-name="doorGuard" d="M183.296 850.432v-819.2h665.6v819.2zM797.696 82.432h-563.2v716.8h563.2zM746.496 748.032h-460.8v-614.4h460.8zM695.296 184.832h-358.4v512h358.4zM644.096 440.832h-51.2v102.4h51.2z" />
<glyph unicode="&#xe907;" glyph-name="fjdc" d="M66.747 235.372c-0.808-62.667 49.332-114.102 111.982-114.93 62.633-0.79 114.070 49.33 114.894 112.002-0.019 0.409-0.019 0.861-0.019 1.315 14.352-7.63 25.605-5 32.387-5.075 0 0-19.82 88.782-51.323 129.396l14.203-0.373 80.27-150.664c5.147-11.384 16.514-19.443 29.889-19.61l222.687-2.915c16.193-0.206 29.774 11.085 33.004 26.264 1.581-0.038 3.177-0.134 4.754-0.17 0 0 5.203-0.075 14.033-0.17 1.259-60.884 50.551-110.27 111.946-111.080 61.73-0.79 112.584 47.867 114.818 109.258 22.918 3.344 41.385 15.857 52.15 34.719 16.605 29.042 2.928 53.164-8.079 81.418-11.608 29.718-37.009 60.412-69.189 80.045 8.7 8.434 14.053 19.557 14.203 31.843 0.396 26.863-24.327 48.954-55.191 49.368l-203.267 2.63c-30.864 0.376-56.168-21.040-56.505-47.903-0.208-16.063 8.566-30.433 22.296-39.47-13.825-13.244-22.393-30.848-22.617-50.214l-0.845-63.122c-0.15-13.13 3.475-25.546 10.050-36.407l-34.792 0.452c-4.447 13.237-16.653 22.642-31.084 22.844h-0.024l-89.776 1.165c-7.964 0.074-15.197-2.574-21.001-7.14l-18.785 35.242c13.79 5.391 21.433 20.477 17.32 34.998l-27.67 97.516c-2.312 8.116-7.853 14.391-14.73 17.923l49.538 107.267c1.86 3.945 2.724 8.134 2.78 12.286l34.135-18.767c7.701-4.188 17.263-1.372 21.454 6.256 4.227 7.627 1.408 17.227-6.22 21.453l-34.753 19.088c0.358 1.785 0.583 3.624 0.62 5.523 0.206 16.043-12.681 29.23-28.743 29.456-11.196 0.17-21.002-6.125-26-15.349-0.131 28.95-23.405 52.562-52.487 52.939-0.172 0.002-0.374 0.004-0.577 0.004-1.039 0-2.071-0.036-3.092-0.106l0.138 0.008c-0.427 0.087-0.931 0.147-1.445 0.169l-0.020 0.001c-3.853 0.056-7.083-3.1-7.14-7.008l-1.202-92.162c-0.020-3.927 3.061-7.177 6.97-7.215 0.507-0.018 0.996 0.038 1.408 0.114 1.165-0.076 2.406-0.17 3.627-0.17 7.12-0.095 13.9 1.259 20.212 3.72l-62.104-134.263-23.783 0.639c-19.332 0.526-35.45-16.908-36.050-38.925-0.094-3.57 0.301-7.025 0.996-10.371-36.5 9.731-84.912 8.924-124.268-21.115-52.487-40.051-11.891-53.39-2.405-56.508 0.808-0.262 1.616-0.47 2.46-0.696-18.315-19.851-29.662-46.265-30.038-75.42zM749.703 209.45c24.95-0.321 51.438-0.64 74.378-0.98-2.145-18.784-18.281-33.287-37.612-33.043-19.35 0.246-35.055 15.161-36.766 34.023zM142.792 234.395c0.244 20.664 17.264 37.16 37.872 36.895 20.664-0.279 37.253-17.206 36.914-37.87-0.263-20.646-17.17-37.197-37.835-36.933-20.684 0.262-37.214 17.243-36.951 37.908z" />
<glyph unicode="&#xe908;" glyph-name="house" d="M808.96 384c0 12.8-10.24 20.48-20.48 20.48-12.8 0-20.48-10.24-20.48-20.48v-220.16c0-2.56 0-10.24-2.56-15.36s-10.24-5.12-17.92-5.12h-153.6v156.16c0 7.68 2.56 33.28-12.8 48.64-5.12 7.68-17.92 15.36-38.4 15.36h-58.88c-20.48 0-30.72-7.68-38.4-15.36-15.36-17.92-12.8-40.96-12.8-48.64v-156.16h-153.6c-5.12 0-12.8 0-17.92 5.12-2.56 5.12-2.56 12.8-2.56 15.36v220.16c0 12.8-10.24 20.48-20.48 20.48-12.8 0-20.48-10.24-20.48-20.48v-212.48c0-7.68-2.56-30.72 12.8-48.64 7.68-10.24 23.040-20.48 48.64-20.48h174.080c10.24 0 20.48 10.24 20.48 20.48v181.76c0 5.12 0 15.36 2.56 17.92 0 0 2.56 2.56 7.68 2.56h56.32c2.56 0 5.12 0 7.68-2.56s2.56-12.8 2.56-17.92v-181.76c0-10.24 10.24-20.48 20.48-20.48h174.080c28.16 0 40.96 10.24 48.64 20.48 15.36 17.92 12.8 40.96 12.8 48.64l2.56 212.48zM896 430.080l-299.52 322.56c-5.12 5.12-33.28 38.4-79.36 38.4-30.72 0-61.44-12.8-89.6-43.52-74.24-79.36-296.96-314.88-299.52-317.44-7.68-7.68-7.68-20.48 0-30.72 7.68-7.68 20.48-7.68 30.72 0 2.56 2.56 225.28 238.080 299.52 317.44 20.48 20.48 38.4 30.72 58.88 30.72 28.16 0 48.64-23.040 48.64-25.6l299.52-322.56c5.12-5.12 10.24-7.68 15.36-7.68s10.24 2.56 15.36 5.12c7.68 12.8 10.24 25.6 0 33.28z" />
<glyph unicode="&#xe909;" glyph-name="jkxj" d="M512 358.6c99.4 0 180 80.6 180 180s-80.6 180-180 180-180-80.6-180-180 80.6-180 180-180zM420.1 630.6c24.6 24.6 57.2 38.1 91.9 38.1s67.4-13.5 91.9-38.1c24.6-24.6 38.1-57.2 38.1-91.9s-13.5-67.4-38.1-91.9c-24.6-24.6-57.2-38.1-91.9-38.1s-67.4 13.5-91.9 38.1c-24.6 24.6-38.1 57.2-38.1 91.9s13.5 67.3 38.1 91.9zM892 518.6c0 209.9-170.1 380-380 380s-380-170.1-380-380c0-145.2 81.5-271.4 201.2-335.4l-24-135.9h-47.2v-50h500v50h-47.3l-24 135.9c119.8 64 201.3 190.2 201.3 335.4zM207.9 390.2c-17.2 40.7-25.9 83.9-25.9 128.4 0 44.6 8.7 87.8 25.9 128.4 16.6 39.3 40.4 74.6 70.7 104.9s65.6 54.1 104.9 70.7c40.7 17.2 83.9 25.9 128.4 25.9s87.8-8.7 128.4-25.9c39.3-16.6 74.6-40.4 104.9-70.7s54.1-65.6 70.7-104.9c17.2-40.7 25.9-83.9 25.9-128.4 0-44.6-8.7-87.8-25.9-128.4-16.6-39.3-40.4-74.6-70.7-104.9s-65.6-54.1-104.9-70.7c-40.7-17.2-83.9-25.9-128.4-25.9s-87.8 8.7-128.4 25.9c-39.3 16.6-74.6 40.4-104.9 70.7s-54.1 65.6-70.7 104.9zM664 47.4h-304l20.2 114.7c41-15.2 85.4-23.5 131.7-23.5s90.7 8.3 131.7 23.5l20.4-114.7zM487 323.6h50v-50h-50v50z" />
<glyph unicode="&#xe90a;" glyph-name="menjin" horiz-adv-x="1102" d="M510.976-62.976h-317.952c-49.664 0-90.112 45.568-90.112 101.376v819.2c0.512 55.808 40.448 101.376 90.112 101.376h529.92c49.664 0 90.112-45.568 90.112-101.376v-409.6c0-12.288-10.24-22.528-22.528-22.528s-22.528 10.24-22.528 22.528v409.6c0 30.208-20.48 56.32-45.056 56.32h-529.92c-24.064 0-44.544-25.6-44.544-56.32v-819.2c0-30.208 20.48-56.32 45.056-56.32h317.952c12.288 0 22.528-10.24 22.528-22.528-0.512-12.288-10.24-22.528-23.040-22.528zM790.528 13.312c-12.288 0-22.528 10.24-22.528 22.528v76.8c0 12.288 10.24 22.528 22.528 22.528s22.528-10.24 22.528-22.528v-76.8c0-12.8-9.728-22.528-22.528-22.528zM939.52-62.976h-297.472c-33.792 0-60.416 20.48-60.416 46.080v197.632c0 26.112 26.624 46.080 60.416 46.080h297.472c33.792 0 60.416-20.48 60.416-46.080v-197.632c0-25.6-26.624-46.080-60.416-46.080zM627.712-15.872c2.048 0 7.168-2.048 14.336-2.048h297.472c9.216 0 15.36 3.584 16.384 4.608l-1.024 194.56c0-2.048-5.632 1.536-15.36 1.536h-297.472c-9.216 0-15.36-3.584-16.384-4.608l1.024-194.56s0.512 0.512 1.024 0.512zM926.72 202.752c-12.288 0-22.528 10.24-22.528 22.528 0 62.976-51.2 113.664-113.664 113.664s-113.664-51.2-113.664-113.664c0-12.288-10.24-22.528-22.528-22.528s-22.528 10.24-22.528 22.528c0 87.552 71.168 158.72 158.72 158.72s158.72-71.168 158.72-158.72c0-12.288-9.728-22.528-22.528-22.528zM188.928 424.96c0-27.136 22.016-49.152 49.152-49.152s49.152 22.016 49.152 49.152-22.016 49.152-49.152 49.152-49.152-22.016-49.152-49.152z" />
<glyph unicode="&#xe90b;" glyph-name="people" horiz-adv-x="1025" d="M344.626 359.464c8.607 3.256 19.065 6.233 31.491 14.042 18.109 11.379 32.062 34.843-1.603 63.595-111.384 160.502-70.843 267.145-53.924 307.317-14.133 5.496-30.208 8.747-48.608 8.747h-5.787c-106.593 0-134.923-96.947-137.085-151.323-1.43-128.215 76.955-179.192 76.955-179.192s4.883-6.742 4.883-26.297c0-4.458-2.906-17.813-7.921-21.847-43.752-35.43-189.787-72.341-199.992-148.665-5.395-22.053-2.168-44.959-1.106-66.186 23.896-18.349 100.454-33.905 100.454-33.905s6.356 19.31 12.808 51.222c9.536 47.171 73.357 123.507 229.435 182.492zM1021.191 226.512c-10.484 76.229-160.407 113.090-205.271 148.474-5.151 4.033-8.11 17.367-8.11 21.813 0 19.539 4.972 26.27 4.972 26.27s80.384 50.909 78.882 178.961c-2.191 54.311-36.079 151.135-140.477 151.135h-5.937c-22.504 0-41.425-4.278-57.578-11.272 22.338-74.782 49.177-212.002-63.755-303.96-44.306-66.052 103.281-104.794 80.341-94.485 133.549-60.018 169.492-106.062 179.279-153.668 8.172-39.733 12.808-64.031 12.808-64.031s100.058 15.272 125.936 34.66c1.116 21.204 4.422 44.078-1.090 66.103zM585.685 372.824c-6.312 5.016-9.943 21.612-9.943 27.136 0 24.28 6.077 32.626 6.077 32.626-0.111-0.072 98.734 53.379 96.79 222.424-2.692 67.509-44.256 187.833-172.348 187.833h-7.285c-134.018 0-169.661-120.323-172.366-187.833-1.809-159.138 96.768-222.424 96.768-222.424s11.954-13.634 11.954-37.916c0-5.53-9.485-16.824-15.787-21.847-55.013-43.982-253.102-88.31-265.943-183.044-9.943-40.19-68.755-103.929 126.791-129.589 53.869-7.067 127.043-11.245 225.859-11.245 453.509 0 359.745 87.859 346.999 139.37-12.849 94.73-212.535 140.529-267.566 184.509z" />
<glyph unicode="&#xe90c;" glyph-name="people2" d="M65.318 236.874c9.8 97.19 71.799 179.028 158.124 215.99-49.007 33.184-81.128 89.16-81.128 152.693 0 101.795 82.546 184.342 184.34 184.342 15.234 0 29.877-2.126 44.048-5.55-13.461-14.643-25.506-30.704-35.428-48.063-2.834 0.118-5.668 0.827-8.621 0.827-72.743 0-131.671-58.928-131.671-131.673s58.928-131.673 131.671-131.673c2.952 0 5.668 0.59 8.621 0.827 11.101-19.249 24.447-36.963 39.799-52.787-13.936 2.952-28.462 4.604-43.223 4.604-109.235 0-198.984-83.135-209.613-189.536h-56.919zM482.654 378.82c-77.467 45.82-129.783 130.019-129.665 226.619 0 145.489 117.856 263.345 263.345 263.345s263.344-117.974 263.344-263.345c0-105.102-61.762-195.679-150.92-237.837 134.742-54.795 229.925-186.94 229.925-341.403h-47.709c0 1.77 0.236 3.541 0.236 5.314 0 174.54-141.474 316.014-315.778 316.014-174.54 0-315.896-141.474-315.896-316.014 0-1.771 0.236-3.543 0.236-5.314h-58.456c0.001 166.272 110.178 306.684 261.338 352.621zM616.216 816.115c-116.322 0-210.678-94.356-210.678-210.676s94.356-210.676 210.678-210.676c116.321 0 210.676 94.356 210.676 210.676s-94.356 210.676-210.676 210.676z" />
<glyph unicode="&#xe90d;" glyph-name="pos" d="M510.699 959.991c-215.032 0-389.35-174.318-389.35-389.35v0c0-182.67 280.332-522.703 365.989-621.987 5.981-6.86 14.735-11.17 24.497-11.17s18.516 4.31 24.464 11.132l0.033 0.039c85.982 97.986 366.314 438.019 366.314 621.987 0 0.002 0 0.006 0 0.009 0 215.032-174.318 389.35-389.35 389.35-0.912 0-1.824-0.003-2.735-0.009l0.139 0.001zM510.699 19.061c-154.118 184.617-324.459 429.259-324.459 551.58 0 179.91 145.846 325.756 325.756 325.756s325.756-145.846 325.756-325.756v0c0-122.321-170.016-366.963-327.054-551.58zM510.699 724.759c-85.271-0.738-154.112-70.035-154.112-155.41 0-85.834 69.582-155.416 155.416-155.416s155.416 69.582 155.416 155.416c0 0.454-0.002 0.908-0.006 1.362v-0.069c-0.732 85.276-70.031 154.123-155.41 154.123-0.458 0-0.916-0.002-1.373-0.006h0.070zM510.699 478.819c-49.429 0.737-89.217 40.979-89.217 90.515 0 49.995 40.529 90.524 90.524 90.524 49.535 0 89.778-39.787 90.514-89.147l0.001-0.069c0.006-0.389 0.009-0.848 0.009-1.307 0-49.995-40.529-90.524-90.524-90.524-0.46 0-0.919 0.003-1.377 0.010l0.069-0.001z" />
<glyph unicode="&#xe90e;" glyph-name="power" d="M160.2 310.1c-23.6 217.5 112 429.8 119.1 448s102.1 100.5 189.9 68.8c87.8-31.6 81.5-97.3 56.7-127.5-22.1-61.5-110.3-42.6-132.4-28.4s-31.5-12.6-31.5-12.6c25.6-96.6 21.1-196.4 17-242.1-0.1 0-64.9-41.2-71.4-82.4 0 0 5.1 15.4 68.5 56.7 89.8 58.4 179.7-26.9 179.7-26.9 23.6 31.5 86.9 11 86.9 11l0.8-1.5c0.6 5.6 0.9 9 0.9 9h100.8c12.9 0 21.1-13.7 15.1-25.1l-152.4-286.2c-3-5.6-8.8-9-15.1-9h-90.8c5.4 3.6 10.4 7.8 15.4 11.9-27.7 5.1-44.5 14.8-55 24.2 36.5 25.8 39.7 59.4 39.7 59.4s-28.5-32-56.5-34.9c-181.3-7.9-197 82-197 82s-14.2-18.9-75.7 9.5-12.7 96.1-12.7 96.1z" />
<glyph unicode="&#xe90f;" glyph-name="psw" d="M820 560h-28v56c0 154.6-125.4 280-280 280s-280-125.4-280-280v-56h-28c-30.9 0-56-25.1-56-56v-448c0-30.9 25.1-56 56-56h616c30.9 0 56 25.1 56 56v448c0 30.9-25.1 56-56 56zM288 616c0 123.5 100.5 224 224 224s224-100.5 224-224v-56h-448v56zM820 56h-616v448h616v-448zM512 392c-15.5 0-28-12.5-28-28v-168c0-15.5 12.5-28 28-28s28 12.5 28 28v168c0 15.5-12.5 28-28 28z" />
<glyph unicode="&#xe910;" glyph-name="RFID" horiz-adv-x="1487" d="M616.216 448c0-70.632 57.258-127.89 127.89-127.89s127.89 57.258 127.89 127.89c0 70.632-57.258 127.89-127.89 127.89v0c-70.632 0-127.89-57.258-127.89-127.89v0zM1158.239 862.133c-4.783-4.771-7.743-11.37-7.743-18.659 0-6.853 2.616-13.096 6.904-17.783l-0.018 0.020c91.046-99.137 146.85-231.908 146.85-377.711s-55.804-278.574-147.218-378.118l0.368 0.406c-4.27-4.667-6.886-10.909-6.886-17.763 0-7.289 2.959-13.887 7.742-18.658l0.001-0.001c4.776-4.783 11.377-7.742 18.67-7.742 7.677 0 14.588 3.279 19.409 8.513l0.017 0.018c99.593 108.506 160.63 253.793 160.63 413.337s-61.038 304.832-161.037 413.785l0.406-0.448c-4.838 5.252-11.749 8.531-19.425 8.531-7.293 0-13.894-2.959-18.669-7.742v0zM329.974 33.867c4.783 4.771 7.743 11.37 7.743 18.659 0 6.853-2.616 13.096-6.904 17.783l0.018-0.020c-91.046 99.137-146.85 231.908-146.85 377.711s55.804 278.574 147.218 378.118l-0.368-0.406c4.27 4.667 6.886 10.909 6.886 17.763 0 7.289-2.959 13.887-7.742 18.658l-0.001 0.001c-4.776 4.783-11.377 7.742-18.67 7.742-7.677 0-14.588-3.279-19.409-8.513l-0.017-0.018c-99.593-108.506-160.63-253.793-160.63-413.337s61.038-304.832 161.037-413.785l-0.406 0.448c4.838-5.257 11.752-8.539 19.432-8.539 7.289 0 13.888 2.956 18.663 7.736v0zM1003.968 706.243c-4.928-4.941-7.976-11.761-7.976-19.292 0-6.827 2.504-13.069 6.644-17.858l-0.029 0.035c50.861-59.040 81.834-136.471 81.834-221.135 0-84.569-30.903-161.92-82.034-221.377l0.376 0.448c-4.107-4.753-6.609-10.993-6.609-17.816 0-7.528 3.045-14.345 7.97-19.286l-0.001 0.001c4.945-4.937 11.771-7.989 19.311-7.989 8.302 0 15.74 3.702 20.753 9.545l0.031 0.037c58.806 68.534 94.605 158.305 94.605 256.438 0 98.236-35.874 188.092-95.235 257.185l0.44-0.524c-5.043 5.875-12.479 9.574-20.778 9.574-7.536 0-14.36-3.050-19.304-7.983l0.001 0.001zM484.149 706.243c-4.944 4.932-11.768 7.982-19.304 7.982-8.299 0-15.734-3.699-20.747-9.537l-0.031-0.036c-58.923-68.57-94.797-158.429-94.797-256.667 0-98.847 36.321-189.212 96.344-258.475l-0.418 0.493c5.041-5.828 12.447-9.493 20.708-9.493 7.537 0 14.361 3.050 19.305 7.984l-0.001-0.001c4.951 4.945 8.013 11.78 8.013 19.33 0 6.848-2.519 13.107-6.682 17.901l0.029-0.034c-51.458 59.215-82.821 137.088-82.821 222.287 0 84.678 30.982 162.12 82.228 221.608l-0.373-0.443c4.107 4.753 6.609 10.993 6.609 17.816 0 7.528-3.045 14.345-7.97 19.286l0.001-0.001z" />
<glyph unicode="&#xe911;" glyph-name="rlxj" d="M848 896h-84c-7.2 0-14.3-2.7-19.8-8.2s-8.2-12.6-8.2-19.8c0-7.2 2.7-14.3 8.2-19.8s12.6-8.2 19.8-8.2h84v-84c0-7.2 2.7-14.3 8.2-19.8s12.6-8.2 19.8-8.2 14.3 2.7 19.8 8.2c5.5 5.5 8.2 12.6 8.2 19.8v84c0 30.9-25.1 56-56 56zM876 448c-7.2 0-14.3-2.7-19.8-8.2s-8.2-12.6-8.2-19.8v-84h-84c-7.2 0-14.3-2.7-19.8-8.2-1.5-1.5-2.3-3.4-3.4-5.2-31.6 30.4-67.1 55.4-106.4 72 79.8 47.7 130.3 139.4 114.8 242.4-14.6 96.7-89.6 177.5-185.3 197.5-17.6 3.7-35 5.4-51.9 5.4-132.6 0-240-107.4-240-240 0-87.6 47.5-163.5 117.6-205.4-39.2-16.6-74.8-41.6-106.4-72-1.1 1.8-1.9 3.7-3.4 5.2-5.5 5.5-12.6 8.2-19.8 8.2h-84v84c0 7.2-2.7 14.3-8.2 19.8s-12.6 8.2-19.8 8.2-14.3-2.7-19.8-8.2c-5.5-5.5-8.2-12.6-8.2-19.8v-84c0-30.9 25.1-56 56-56h69c-46.8-60.6-79.3-136.5-89.5-221.3-3.8-31.2 21.1-58.7 52.5-58.7h608c31.4 0 56.2 27.6 52.5 58.7-10.2 84.9-42.7 160.8-89.5 221.4h69c30.9 0 56 25.1 56 56v84c0 7.2-2.7 14.3-8.2 19.8s-12.6 8.2-19.8 8.2zM211.5 55c16.9 132.8 93.3 242.9 199.9 288 19.4 8.2 32.6 26.7 34.1 47.7 1.5 21.1-9 41.1-27.2 52-56.5 33.7-90.3 92.6-90.3 157.3 0 101.5 82.5 184 184 184 13.4 0 27-1.4 40.4-4.3 72.1-15.1 130.3-77.2 141.4-151.1 11.4-75.5-22.4-146.8-88.2-186-18.1-10.8-28.6-30.9-27.2-52 1.5-21.1 14.6-39.5 34.1-47.7 106.5-44.8 182.8-154.6 199.9-286.9l-600.9-1zM148 728c7.2 0 14.3 2.7 19.8 8.2s8.2 12.6 8.2 19.8v84h84c7.2 0 14.3 2.7 19.8 8.2s8.2 12.6 8.2 19.8c0 7.2-2.7 14.3-8.2 19.8s-12.6 8.2-19.8 8.2h-84c-30.9 0-56-25.1-56-56v-84c0-7.2 2.7-14.3 8.2-19.8s12.6-8.2 19.8-8.2z" />
<glyph unicode="&#xe912;" glyph-name="security" d="M770.94 57h-61.94v257h53.94c14.981 0.17 27.060 12.353 27.060 27.358 0 0.001 0 0.001 0 0.002v0 140.78c-0.040 14.843-12.081 26.86-26.93 26.86-0.046 0-0.091 0-0.137 0h-53.933v79.44c2.956 0.597 5.553 1.844 7.736 3.588l-0.036-0.028h34.49c14.912 0 27 12.088 27 27s-12.088 27-27 27v0h-26.12c-15.212 69.423-61.855 125.517-123.912 153.445l-1.378 0.555c0.070 0.8 0.22 1.56 0.22 2.38v63.62c-0.102 14.933-12.232 27-27.179 27-0.011 0-0.022 0-0.032 0h-121.588c-0.009 0-0.020 0-0.031 0-14.946 0-27.073-12.068-27.169-26.991v-63.669c0-0.82 0.14-1.64 0.22-2.44-63.479-28.375-110.153-84.47-125.026-152.461l-0.264-1.439h-26.12c-14.912 0-27-12.088-27-27s12.088-27 27-27v0h34.49c2.147-1.716 4.744-2.963 7.584-3.54l0.116-0.020v-79.44h-53.94c-0.039 0-0.084 0-0.13 0-14.849 0-26.89-12.017-26.93-26.857v-140.784c0-0.001 0-0.001 0-0.002 0-15.005 12.079-27.189 27.044-27.358h53.956v-257h-61.94c-14.912 0-27-12.088-27-27s12.088-27 27-27v0h517.88c14.912 0 27 12.088 27 27s-12.088 27-27 27v0zM736 455v-87h-27v87zM478 839h68v-23.34c-10.22 1.673-21.998 2.628-34 2.628s-23.78-0.956-35.264-2.795l1.264 0.167zM400.26 720.37c29.19 27.269 68.516 44.013 111.752 44.013 74.299 0 137.050-49.444 157.143-117.224l0.295-1.159h-314.9c8.731 29.488 24.59 54.614 45.617 74.284l0.093 0.086zM288 368v87h27v-87zM369 57v535h286v-535zM456 538.1c-14.912 0-27-12.088-27-27v0-375.1c0-14.912 12.088-27 27-27s27 12.088 27 27v0 375.1c0 14.912-12.088 27-27 27v0zM568 538.1c-14.912 0-27-12.088-27-27v0-375.1c0-14.912 12.088-27 27-27s27 12.088 27 27v0 375.1c0 14.912-12.088 27-27 27v0z" />
<glyph unicode="&#xe913;" glyph-name="sos" horiz-adv-x="1365" d="M428.089 499.2c-19.911 0-32.711 12.8-46.933 25.6-9.956 8.533-19.911 12.8-41.244 12.8-24.178 0-38.4-9.956-39.822-24.178-1.422-15.644 15.644-25.6 38.4-32.711l52.622-15.644c59.733-17.067 95.289-42.667 95.289-108.089 0-73.956-48.356-113.778-135.111-113.778-103.822-1.422-140.8 52.622-140.8 85.333-1.422 22.756 22.756 42.667 46.933 42.667 19.911 0 28.444-14.222 41.244-27.022 9.956-9.956 24.178-18.489 46.933-19.911 34.133-2.844 46.933 9.956 46.933 28.444-1.422 14.222-14.222 24.178-34.133 29.867l-68.267 22.756c-51.2 17.067-82.489 46.933-82.489 96.711 0 76.8 44.089 115.2 125.156 116.622 85.333 1.422 135.111-38.4 137.956-76.8 1.422-27.022-21.333-42.667-42.667-42.667zM694.044 243.2c-93.867 0-167.822 56.889-167.822 187.733 1.422 125.156 71.111 187.733 167.822 187.733 98.133 0 167.822-62.578 167.822-187.733 0-130.844-66.844-187.733-167.822-187.733zM694.044 533.333c-46.933 0-73.956-32.711-73.956-103.822 0-66.844 29.867-102.4 73.956-102.4 46.933 0 73.956 29.867 73.956 102.4 1.422 75.378-24.178 103.822-73.956 103.822zM1124.978 499.2c-19.911 0-32.711 12.8-46.933 25.6-9.956 8.533-19.911 12.8-41.244 12.8-24.178 0-38.4-9.956-39.822-24.178-1.422-15.644 15.644-25.6 38.4-32.711l52.622-15.644c59.733-17.067 95.289-42.667 95.289-108.089 0-73.956-48.356-113.778-135.111-113.778-103.822-1.422-140.8 52.622-140.8 85.333-1.422 22.756 22.756 42.667 46.933 42.667 19.911 0 28.444-14.222 41.244-27.022 9.956-9.956 24.178-18.489 46.933-19.911 34.133-2.844 46.933 9.956 46.933 28.444-1.422 14.222-14.222 24.178-34.133 29.867l-68.267 22.756c-51.2 17.067-82.489 46.933-82.489 96.711 0 76.8 44.089 115.2 125.156 116.622 85.333 1.422 135.111-38.4 137.956-76.8 0-27.022-21.333-42.667-42.667-42.667z" />
<glyph unicode="&#xe914;" glyph-name="user" d="M632.619 382.763c105.728 46.571 179.84 152.192 179.84 274.965 0 165.675-134.784 300.437-300.459 300.437s-300.437-134.763-300.437-300.437c0-122.752 74.091-228.395 179.819-274.965-184.555-52.629-320.192-222.379-320.192-423.595 0-11.797 9.557-21.333 21.333-21.333s21.333 9.536 21.333 21.333c0 219.52 178.603 398.123 398.144 398.123s398.144-178.603 398.144-398.123c0-11.797 9.536-21.333 21.333-21.333s21.333 9.536 21.333 21.333c0 201.216-135.637 370.965-320.192 423.595zM254.229 657.728c0 142.144 115.627 257.771 257.771 257.771s257.792-115.627 257.792-257.771-115.648-257.771-257.792-257.771c-142.144 0-257.771 115.627-257.771 257.771z" />
<glyph unicode="&#xe915;" glyph-name="v1" d="M747.52 960c77.312 0 142.336-26.624 196.096-80.384s80.384-119.296 80.384-196.096v-470.528c0-77.312-26.624-142.336-80.384-196.096-53.76-54.272-119.296-80.896-196.096-80.896h-471.040c-76.8 0-142.336 26.624-196.096 80.384s-80.384 119.296-80.384 196.608v470.528c0 76.8 26.624 142.336 80.384 196.096s119.296 80.384 196.096 80.384h471.040z" />
<glyph unicode="&#xe916;" glyph-name="v9" d="M211.456 960c22.016 0 40.448-7.68 55.808-22.528 15.36-15.36 22.528-33.792 22.528-55.808v-133.12c0-22.016-7.68-40.448-22.528-55.808-15.36-15.36-33.792-23.040-55.808-23.040h-133.12c-22.016 0-40.448 7.68-55.296 23.040-15.36 15.36-23.040 33.792-23.040 55.808v133.12c0 22.016 7.68 40.448 23.040 55.808 14.848 14.848 33.28 22.528 55.296 22.528h133.12zM581.12 960c22.016 0 40.448-7.68 55.296-22.528 15.36-15.36 23.040-33.792 23.040-55.808v-133.12c0-22.016-7.68-40.448-23.040-55.808s-33.792-23.040-55.296-23.040h-135.68c-22.016 0-40.448 7.68-55.296 23.040-15.36 15.36-23.040 33.792-23.040 55.808v133.12c0 22.016 7.68 40.448 23.040 55.808s33.792 22.528 55.296 22.528h135.68zM945.664 960c22.016 0 40.448-7.68 55.808-22.528 15.36-15.36 23.040-33.792 23.040-55.808v-133.12c0-22.016-7.68-40.448-23.040-55.808s-33.792-23.040-55.808-23.040h-135.68c-22.016 0-40.448 7.68-55.296 23.040-15.36 15.36-23.040 33.792-23.040 55.808v133.12c0 22.016 7.68 40.448 23.040 55.808s33.792 22.528 55.296 22.528h135.68zM211.456 592.896c22.016 0 40.448-7.68 55.808-22.528 15.36-15.36 22.528-33.792 22.528-55.296v-133.12c0-22.016-7.68-40.448-22.528-55.296-15.36-15.36-33.792-23.040-55.808-23.040h-133.12c-22.016 0-40.448 7.68-55.296 23.040s-23.040 32.768-23.040 54.784v133.12c0 22.016 7.68 40.448 23.040 55.296 15.36 15.36 33.792 22.528 55.296 22.528 0 0.512 133.12 0.512 133.12 0.512zM581.12 592.896c22.016 0 40.448-7.68 55.296-22.528 15.36-15.36 23.040-33.792 23.040-55.296v-133.12c0-22.016-7.68-40.448-23.040-55.296-15.36-15.36-33.792-23.040-55.296-23.040h-135.68c-22.016 0-40.448 7.68-55.296 23.040s-23.040 33.792-23.040 55.296v132.608c0 22.016 7.68 40.448 23.040 55.296 15.36 15.36 33.792 22.528 55.296 22.528h135.68v0.512zM945.664 592.896c22.016 0 40.448-7.68 55.808-22.528 15.36-15.36 23.040-33.792 23.040-55.296v-133.12c0-22.016-7.68-40.448-23.040-55.296-15.36-15.36-33.792-23.040-55.808-23.040h-135.68c-22.016 0-40.448 7.68-55.296 23.040-15.36 15.36-23.040 33.792-23.040 55.296v132.608c0 22.016 7.68 40.448 23.040 55.296 15.36 15.36 33.792 22.528 55.296 22.528h135.68v0.512zM211.456 225.792c22.016 0 40.448-7.68 55.808-22.528 15.36-15.36 22.528-33.792 22.528-55.296v-133.12c0-22.016-7.68-40.448-22.528-55.296-15.36-15.36-33.792-23.040-55.808-23.040h-133.12c-22.016 0-40.448 7.68-55.296 23.040s-23.040 32.768-23.040 54.784v133.12c0 22.016 7.68 40.448 23.040 55.296 15.36 15.36 33.792 22.528 55.296 22.528h133.12v0.512zM581.12 225.792c22.016 0 40.448-7.68 55.296-22.528 15.36-15.36 23.040-33.792 23.040-55.296v-133.12c0-22.016-7.68-40.448-23.040-55.296-15.36-15.36-33.792-23.040-55.296-23.040h-135.68c-22.016 0-40.448 7.68-55.296 23.040s-23.040 33.792-23.040 55.296v133.12c0 22.016 7.68 40.448 23.040 55.296 15.36 15.36 33.792 22.528 55.296 22.528h135.68zM945.664 225.792c22.016 0 40.448-7.68 55.808-22.528 15.36-15.36 23.040-33.792 23.040-55.296v-133.12c0-22.016-7.68-40.448-23.040-55.296-15.36-15.36-33.792-23.040-55.808-23.040h-135.68c-22.016 0-40.448 7.68-55.296 23.040-15.36 15.36-23.040 33.792-23.040 55.296v133.12c0 22.016 7.68 40.448 23.040 55.296 15.36 15.36 33.792 22.528 55.296 22.528h135.68z" />
<glyph unicode="&#xe917;" glyph-name="wifi" d="M430.976 204.8c0-44.748 36.276-81.024 81.024-81.024s81.024 36.276 81.024 81.024v0c0 44.748-36.276 81.024-81.024 81.024s-81.024-36.276-81.024-81.024v0zM512 448c-78.016 0-147.264-36.864-191.808-94.080l42.688-33.216c34.56 44.544 88.384 73.152 149.12 73.152s114.496-28.608 149.248-73.152l42.56 33.216c-44.544 57.216-113.792 94.080-191.808 94.080zM512 772.224c-182.080 0-343.744-86.144-447.552-219.456l43.648-33.92c93.76 120.32 239.616 198.016 403.904 198.016 164.224 0 310.144-77.696 403.904-198.016l43.712 33.984c-103.936 133.312-265.536 219.392-447.616 219.392zM512 610.112c-130.048 0-245.504-61.44-319.616-156.672l42.624-33.216c64.256 82.496 164.288 135.872 276.992 135.872s212.672-53.376 277.056-135.872l42.56 33.216c-74.112 95.168-189.568 156.672-319.616 156.672z" />
<glyph unicode="&#xe918;" glyph-name="wi-fi" d="M529.511 452.759c25.724-0.063 50.372-4.585 73.24-12.832l-1.515 0.477c10.151-3.594 20.302 5.924 22.704 21.133 0.312 1.775 0.491 3.818 0.491 5.903 0 0.16-0.001 0.319-0.003 0.479v-0.024c0 12.734-5.924 24.312-14.648 27.382-26.371 9.031-53.32 13.655-80.268 13.8-28.546-0.175-55.868-5.176-81.268-14.226l1.722 0.535c-10.187-3.594-16.473-18.658-14.070-33.722 2.33-15.064 12.445-24.42 22.686-20.844v-0.144c21.054 7.656 45.358 12.084 70.696 12.084 0.082 0 0.165 0 0.247 0h-0.013zM290.783 684.244l0.018-0.144c75.681 53.013 157.177 79.401 238.873 79.401 81.749 0.036 163.318-26.389 238.945-79.401 9.465-6.629 20.717-0.632 25.215 13.583 1.156 3.847 1.752 7.875 1.752 11.777 0 10.621-4.028 20.699-10.873 25.576-80.702 56.48-167.834 84.874-255.020 84.874-87.096 0-174.192-28.43-254.948-84.874-9.501-6.629-13.511-23.463-9.049-37.389 4.389-14.034 15.66-19.995 25.088-13.402zM682.083 625.091c-49.201 25.052-100.932 37.858-152.734 37.858-51.423 0.036-102.882-12.391-151.686-37.75-9.862-5.112-15.046-21.169-11.632-35.691 3.36-14.576 14.143-22.397 23.987-17.286 44.74 23.102 91.973 34.571 139.35 34.535 47.612 0 95.224-11.704 140.416-34.896 9.844-5.075 20.645 2.691 23.987 17.394 0.704 3.034 1.066 6.105 1.066 9.103 0 11.686-4.895 22.668-12.752 26.732zM349.865 318.63c-2.188 0.637-4.701 1.003-7.3 1.003-4.36 0-8.48-1.031-12.128-2.862l0.156 0.071c-5.961-2.98-9.754-7.135-11.361-12.662l-27.545-166.732-40.026 160.808c-2.222 6.683-5.256 11.903-8.995 15.515-3.938 3.793-10.169 5.708-18.496 5.708-13.149 0-22-7.171-26.371-21.458l-39.972-160.573-27.653 167.184c-1.824 5.13-5.653 9.248-11.415 12.192-5.69 2.908-12.174 3.594-19.561 1.788-7.532-2.023-13.059-5.816-16.437-11.271-3.45-5.563-4.407-11-2.926-16.039l47.124-219.817c1.499-5.057 4.841-9.483 9.934-13.131 5.057-3.612 11.253-5.455 18.405-5.455s13.33 1.842 18.405 5.455c5.094 3.649 8.435 8.056 9.934 13.185l40.929 153.98 41.308-154.052c1.481-5.057 4.823-9.465 9.916-13.131 5.057-3.612 11.253-5.455 18.405-5.455 6.864 0 12.987 1.842 18.171 5.437 5.238 3.649 8.67 8.056 10.205 13.33l47.034 219.42c1.535 5.22 0.56 10.693-2.872 16.22-3.378 5.491-9.049 9.32-16.87 11.343zM441.007 319.515c-8.038 0-14.504-2.167-19.218-6.43-4.805-4.335-7.225-9.356-7.225-14.865v-223.592c0-5.527 2.42-10.53 7.225-14.865 4.714-4.263 11.199-6.43 19.218-6.43 7.243 0 13.312 2.167 18.044 6.43 4.805 4.353 7.225 9.356 7.225 14.865v223.574c0 5.527-2.42 10.512-7.225 14.865-4.732 4.263-10.801 6.448-18.044 6.448zM615.505 199.618h-70.424c-5.473 0-10.44-2.204-14.775-6.539s-6.52-10.241-6.52-17.556c0-6.809 2.204-12.427 6.52-16.762 4.335-4.317 9.302-6.52 14.775-6.52h70.424c8.11 0 14.396 2.204 18.73 6.52s6.52 9.97 6.52 16.762c0 7.297-2.204 13.185-6.52 17.556-4.335 4.335-10.639 6.539-18.73 6.539zM830.373 315.559h-107.235c-7.767 0-14.161-2.167-19.001-6.43-4.949-4.335-7.442-9.356-7.442-14.883v-220.016c0-5.545 2.511-10.548 7.442-14.883 4.841-4.245 11.235-6.412 19.001-6.412 7.532 0 13.691 2.186 18.279 6.466 4.642 4.353 6.99 9.356 6.99 14.829v85.922h57.040c8.074 0 14.378 2.204 18.73 6.52 4.335 4.335 6.539 9.988 6.539 16.78 0 7.297-2.204 13.203-6.539 17.556-4.335 4.317-10.621 6.52-18.73 6.52h-57.040v60.653h81.966c8.092 0 14.396 2.204 18.73 6.539s6.539 9.97 6.539 16.744c0 7.297-2.204 13.185-6.539 17.556-4.335 4.335-10.639 6.539-18.73 6.539zM936.272 313.066c-4.732 4.263-10.801 6.43-18.044 6.43-8.038 0-14.504-2.167-19.236-6.43-4.805-4.335-7.225-9.356-7.225-14.865v-223.592c0-5.527 2.42-10.53 7.225-14.865 4.714-4.263 11.199-6.43 19.236-6.43 7.243 0 13.312 2.167 18.044 6.43 4.805 4.353 7.225 9.356 7.225 14.865v223.592c0 5.527-2.42 10.512-7.225 14.865z" />
<glyph unicode="&#xe919;" glyph-name="xingren" d="M208.896 630.467h206.341l65.019-120.832 62.464-75.776 130.56 196.608h229.888l69.632-198.656-30.72-106.496-39.936 1.019 10.757 90.624-26.117 68.608-5.12-158.208-32.763-299.52h-53.248l-3.584 274.437h-30.203l-50.688-275.968h-59.392l18.432 301.568v148.992l-131.584-112.64-102.912 73.216-3.584-110.080-34.816-301.563h-59.914v275.963h-30.208l-54.272-273.92h-53.248l20.48 299.52-5.12 137.216-77.312-93.184v-40.448h25.088v-207.872h-80.896v207.872h25.088v41.984l-17.92 7.68 119.808 249.856zM816.64 855.747c-47.099 28.672-108.539 13.312-137.216-33.792-28.672-47.104-13.312-108.544 33.797-137.216 47.099-28.672 108.539-13.312 137.216 33.792 28.667 47.104 13.307 108.544-33.797 137.216zM268.288 855.747c47.104 28.672 108.544 13.312 137.216-33.792s13.312-108.544-33.792-137.216c-47.104-28.672-108.544-13.312-137.221 33.792-28.155 47.104-13.307 108.544 33.797 137.216z" />
<glyph unicode="&#xe91a;" glyph-name="yj" horiz-adv-x="1102" d="M864.886 64.551l0.236 495.458c0 83.968-32.926 163.052-92.79 222.917-56.275 57.241-134.537 92.711-221.083 92.711-0.091 0-0.182 0-0.273 0h0.014c-83.889 0-163.052-32.926-222.917-92.711-57.262-56.795-92.712-135.507-92.712-222.499 0-0.147 0-0.294 0-0.441v0.023l0.394-495.301-84.047-0.158-0.788 495.38c0.070 110.439 44.914 210.391 117.36 282.697l0.006 0.006c72.276 72.416 172.163 117.251 282.523 117.366h0.022c109.838-0.54 209.118-45.294 281.042-117.36l0.006-0.006c72.427-72.248 117.285-172.103 117.445-282.436v-495.331l-84.441-0.315zM1033.452-17.999h-957.046c-23.3 0.045-42.176 18.921-42.22 42.216v0.004c0 23.316 18.905 42.22 40.724 42.22h956.967c24.812 0 43.717-18.905 43.717-42.22 0-23.237-18.905-42.22-42.22-42.22zM683.481 469.74h-107.284v233.314l-152.734-286.484h111.222v-222.681l148.874 275.85z" />
<glyph unicode="&#xe91b;" glyph-name="building" d="M409.771 917.333h-307.2c-37.547 0-68.267-30.72-68.267-68.267v-802.133c0-37.547 30.72-68.267 68.267-68.267h307.2c37.703 0 68.267 30.564 68.267 68.267v0 802.133c0 37.703-30.564 68.267-68.267 68.267v0zM306.244 134.4h-102.4c-18.773 0-34.133 15.36-34.133 34.133s15.36 34.133 34.133 34.133h102.4c18.773 0 34.133-15.36 34.133-34.133s-15.36-34.133-34.133-34.133zM306.244 322.133h-102.4c-18.773 0-34.133 15.36-34.133 34.133s15.36 34.133 34.133 34.133h102.4c18.773 0 34.133-15.36 34.133-34.133s-15.36-34.133-34.133-34.133zM306.244 509.867h-102.4c-18.773 0-34.133 15.36-34.133 34.133s15.36 34.133 34.133 34.133h102.4c18.773 0 34.133-15.36 34.133-34.133s-15.36-34.133-34.133-34.133zM306.244 697.6h-102.4c-18.773 0-34.133 15.36-34.133 34.133s15.36 34.133 34.133 34.133h102.4c18.773 0 34.133-15.36 34.133-34.133s-15.36-34.133-34.133-34.133zM921.429 558.933h-307.2c-37.703 0-68.267-30.564-68.267-68.267v0-443.733c0-37.703 30.564-68.267 68.267-68.267h307.2c37.547 0 68.267 30.72 68.267 68.267v443.733c0 37.547-30.72 68.267-68.267 68.267zM818.244 134.4h-102.4c-18.773 0-34.133 15.36-34.133 34.133s15.36 34.133 34.133 34.133h102.4c18.773 0 34.133-15.36 34.133-34.133s-15.36-34.133-34.133-34.133zM818.244 322.133h-102.4c-18.773 0-34.133 15.36-34.133 34.133s15.36 34.133 34.133 34.133h102.4c18.773 0 34.133-15.36 34.133-34.133s-15.36-34.133-34.133-34.133z" />
<glyph unicode="&#xe91c;" glyph-name="leftBot" d="M865.28 79.921h-706.56v706.56h149.876v-556.684h556.684z" />
<glyph unicode="&#xe91d;" glyph-name="leftTop" d="M865.28 786.481h-706.56v-706.56h149.876v556.684h556.684z" />
<glyph unicode="&#xe91e;" glyph-name="list" d="M341.333 789.333h568.889v-113.778h-568.889zM113.778 789.333h113.778v-113.778h-113.778zM113.778 504.889h113.778v-113.778h-113.778zM113.778 220.444h113.778v-113.778h-113.778zM341.333 220.444h568.889v-113.778h-568.889zM341.333 504.889h568.889v-113.778h-568.889z" />
<glyph unicode="&#xe91f;" glyph-name="refresh" d="M899 364.6c0-1.8-0.2-3-0.5-3.6-22.2-93.1-68.8-168.5-139.6-226.3-70.9-57.8-153.8-86.8-249-86.8-50.7 0-99.8 9.5-147.1 28.7-47.4 19.1-89.7 46.3-126.9 81.7l-67.2-67.2c-6.6-6.6-14.5-9.9-23.4-9.9s-16.9 3.3-23.4 9.9c-6.6 6.6-9.9 14.5-9.9 23.4v233.5c0 9 3.3 16.9 9.9 23.4 6.6 6.6 14.4 9.9 23.4 9.9h233.3c9 0 16.9-3.3 23.4-9.9s9.9-14.5 9.9-23.4-3.3-16.9-9.9-23.4l-71.3-71.3c24.6-22.9 52.6-40.6 83.9-53.1 31.2-12.5 63.8-18.7 97.4-18.7 46.6 0 89.9 11.3 130.2 33.8 40.3 22.6 72.5 53.7 96.8 93.2 3.8 5.9 13 26.2 27.6 60.9 2.7 8 8 11.9 15.7 11.9h100c4.5 0 8.4-1.6 11.7-4.9s5-7.3 5-11.8zM912 781.3v-233.3c0-9-3.3-16.9-9.9-23.4s-14.5-9.9-23.4-9.9h-233.3c-9 0-16.9 3.3-23.4 9.9s-9.9 14.4-9.9 23.4c0 9 3.3 16.9 9.9 23.4l71.9 71.9c-51.5 47.5-112.1 71.3-181.8 71.3-46.6 0-89.9-11.3-130.2-33.8s-72.6-53.7-96.8-93.2c-3.8-5.9-13-26.2-27.6-60.9-2.7-8-8-11.9-15.7-11.9h-103.8c-4.5 0-8.4 1.6-11.7 4.9s-4.9 7.2-4.9 11.7v3.6c22.6 93 69.5 168.5 140.7 226.3s154.6 86.8 250 86.8c50.7 0 100-9.6 147.9-28.9s90.5-46.4 127.6-81.5l67.7 67.2c6.6 6.6 14.4 9.9 23.4 9.9s16.9-3.3 23.4-9.9c6.5-6.8 9.9-14.6 9.9-23.6z" />
<glyph unicode="&#xe920;" glyph-name="rightBot" d="M880.079 801.28v-706.559h-706.559v149.876h556.684v556.684z" />
<glyph unicode="&#xe921;" glyph-name="rightTop" d="M865.28 79.921v706.56h-706.56v-149.876h556.684v-556.684z" />
<glyph unicode="&#xe922;" glyph-name="fw" d="M959.030 417.536c14.72-14.72 38.080-14.016 51.968 1.664 6.19 7.136 9.962 16.514 9.962 26.774 0 11.093-4.41 21.156-11.572 28.532l0.010-0.010-471.616 473.408c-6.422 6.578-15.378 10.657-25.287 10.657-10.702 0-20.292-4.759-26.771-12.275l-0.039-0.046-0.768-0.832-473.024-466.56 24.96-28.672-25.024 28.8c-7.326-7.388-11.853-17.561-11.853-28.792 0-10.167 3.71-19.468 9.851-26.622l-0.046 0.055c6.578-7.658 16.255-12.493 27.063-12.544h0.009v-0.128h123.008v-433.984c0-21.76 16.512-39.232 36.864-39.232h183.232c20.288 0 36.864 17.472 36.864 39.232v230.656h191.36v-230.656c0-21.76 16.448-39.232 36.864-39.232h183.232c20.288 0 36.8 17.472 36.8 39.232v419.264c0 21.696-16.512 39.232-36.8 39.232-20.352 0-36.864-17.536-36.864-39.232v-380.096h-109.568v230.656c0 21.696-16.512 39.168-36.8 39.168h-265.152c-20.352 0-36.864-17.472-36.864-39.168v-230.656h-109.504v434.112c0 21.696-16.512 39.232-36.8 39.232h-66.176l381.632 376.448 446.848-448.384z" />
<glyph unicode="&#xe923;" glyph-name="village" d="M932.719 87.172h-42.498v526.512c0 14.152-7.519 27.238-19.746 34.366l-215.716 125.752c-12.303 7.174-27.503 7.221-39.852 0.126-12.347-7.095-19.962-20.25-19.962-34.492v-652.265h-45.242v755.686c0 13.374-6.721 25.854-17.887 33.213-11.167 7.36-25.285 8.616-37.576 3.342l-337.108-144.65c-14.618-6.272-24.094-20.649-24.094-36.556v-611.036h-42.344c-7.784 0-14.095-6.311-14.095-14.094v-45.845c0-7.783 6.311-14.094 14.095-14.094h842.024c7.783 0 14.094 6.311 14.094 14.094v45.845c0 7.784-6.311 14.095-14.094 14.095zM704.831 631.369c0 7.784 6.31 14.095 14.095 14.095h44.776c7.784 0 14.095-6.311 14.095-14.095v-44.777c0-7.784-6.311-14.095-14.095-14.095h-44.775c-7.785 0-14.095 6.311-14.095 14.095v44.777zM704.831 518.623c0 7.784 6.31 14.095 14.095 14.095h44.776c7.784 0 14.095-6.311 14.095-14.095v-44.778c0-7.784-6.311-14.095-14.095-14.095h-44.775c-7.785 0-14.095 6.311-14.095 14.095v44.778zM704.831 405.879c0 7.783 6.31 14.094 14.095 14.094h44.776c7.784 0 14.095-6.311 14.095-14.094v-44.779c0-7.783-6.311-14.094-14.095-14.094h-44.775c-7.785 0-14.095 6.311-14.095 14.094v44.779zM704.831 293.133c0 7.783 6.31 14.094 14.095 14.094h44.776c7.784 0 14.095-6.311 14.095-14.094v-44.779c0-7.783-6.311-14.094-14.095-14.094h-44.775c-7.785 0-14.095 6.311-14.095 14.094v44.779zM704.831 180.387c0 7.783 6.31 14.094 14.095 14.094h44.776c7.784 0 14.095-6.311 14.095-14.094v-44.779c0-7.783-6.311-14.094-14.095-14.094h-44.775c-7.785 0-14.095 6.311-14.095 14.094v44.779zM372.199 744.115c0 7.784 6.311 14.095 14.095 14.095h44.777c7.784 0 14.095-6.311 14.095-14.095v-44.777c0-7.784-6.311-14.095-14.095-14.095h-44.777c-7.784 0-14.095 6.311-14.095 14.095v44.777zM372.199 631.369c0 7.784 6.311 14.095 14.095 14.095h44.777c7.784 0 14.095-6.311 14.095-14.095v-44.777c0-7.784-6.311-14.095-14.095-14.095h-44.777c-7.784 0-14.095 6.311-14.095 14.095v44.777zM372.199 518.623c0 7.784 6.311 14.095 14.095 14.095h44.777c7.784 0 14.095-6.311 14.095-14.095v-44.778c0-7.784-6.311-14.095-14.095-14.095h-44.777c-7.784 0-14.095 6.311-14.095 14.095v44.778zM372.199 405.879c0 7.783 6.311 14.094 14.095 14.094h44.777c7.784 0 14.095-6.311 14.095-14.094v-44.779c0-7.783-6.311-14.094-14.095-14.094h-44.777c-7.784 0-14.095 6.311-14.095 14.094v44.779zM372.199 293.133c0 7.783 6.311 14.094 14.095 14.094h44.777c7.784 0 14.095-6.311 14.095-14.094v-44.779c0-7.783-6.311-14.094-14.095-14.094h-44.777c-7.784 0-14.095 6.311-14.095 14.094v44.779zM372.199 180.387c0 7.783 6.311 14.094 14.095 14.094h44.777c7.784 0 14.095-6.311 14.095-14.094v-44.779c0-7.783-6.311-14.094-14.095-14.094h-44.777c-7.784 0-14.095 6.311-14.095 14.094v44.779zM236.461 631.369c0 7.784 6.311 14.095 14.095 14.095h44.777c7.784 0 14.095-6.311 14.095-14.095v-44.777c0-7.784-6.311-14.095-14.095-14.095h-44.777c-7.784 0-14.095 6.311-14.095 14.095v44.777zM236.461 518.623c0 7.784 6.311 14.095 14.095 14.095h44.777c7.784 0 14.095-6.311 14.095-14.095v-44.778c0-7.784-6.311-14.095-14.095-14.095h-44.777c-7.784 0-14.095 6.311-14.095 14.095v44.778zM236.461 405.879c0 7.783 6.311 14.094 14.095 14.094h44.777c7.784 0 14.095-6.311 14.095-14.094v-44.779c0-7.783-6.311-14.094-14.095-14.094h-44.777c-7.784 0-14.095 6.311-14.095 14.094v44.779zM236.461 293.133c0 7.783 6.311 14.094 14.095 14.094h44.777c7.784 0 14.095-6.311 14.095-14.094v-44.779c0-7.783-6.311-14.094-14.095-14.094h-44.777c-7.784 0-14.095 6.311-14.095 14.094v44.779zM236.461 180.387c0 7.783 6.311 14.094 14.095 14.094h44.777c7.784 0 14.095-6.311 14.095-14.094v-44.779c0-7.783-6.311-14.094-14.095-14.094h-44.777c-7.784 0-14.095 6.311-14.095 14.094v44.779z" />
</font>
</defs>
</svg>
